<svg width="2531" height="1001" viewBox="0 0 2531 1001" fill="none" xmlns="http://www.w3.org/2000/svg">
<path d="M877.252 0.168945H122.748C54.9561 0.168945 0 55.125 0 122.917V877.421C0 945.213 54.9561 1000.17 122.748 1000.17H877.252C945.044 1000.17 1000 945.213 1000 877.421V122.917C1000 55.125 945.044 0.168945 877.252 0.168945Z" fill="#282828"/>
<path d="M500.084 50.5142C252.236 50.5142 50.5146 252.332 50.5146 500.085C50.5146 747.839 252.331 949.655 500.084 949.655C747.838 949.655 949.655 747.839 949.655 500.085C949.655 252.332 747.838 50.5142 500.084 50.5142V50.5142ZM499.415 90.4597C499.416 90.4597 499.417 90.4597 499.418 90.4597C507.105 90.6586 514.41 93.8623 519.776 99.3878C525.142 104.913 528.144 112.323 528.141 120.037C528.141 127.882 525.025 135.405 519.478 140.953C513.931 146.5 506.407 149.616 498.563 149.616C490.718 149.616 483.195 146.5 477.647 140.953C472.1 135.405 468.984 127.882 468.984 120.037C468.983 116.08 469.775 112.163 471.314 108.518C472.854 104.873 475.109 101.574 477.947 98.8156C480.784 96.0576 484.146 93.897 487.834 92.4617C491.521 91.0265 495.459 90.3457 499.415 90.4597H499.415ZM432.559 139.154L478.115 186.898C488.387 197.645 505.41 198.121 516.158 187.754L567.135 139.154C587.475 143.092 607.442 148.759 626.817 156.094C628.6 156.462 630.369 156.97 632.119 157.655C644.749 162.599 657.031 168.232 668.928 174.5C669.641 174.88 670.352 175.262 671.062 175.646C680.416 180.654 689.527 186.055 698.37 191.834C700.307 193.099 702.231 194.383 704.143 195.685C711.653 200.8 718.96 206.189 726.054 211.836C729.043 214.213 731.994 216.636 734.906 219.105C740.727 224.044 746.386 229.167 751.884 234.457C755.552 237.98 759.146 241.58 762.664 245.253C767.294 250.096 771.792 255.067 776.152 260.159C780.028 264.69 783.792 269.315 787.44 274.031C790.481 277.956 793.453 281.938 796.335 285.988C796.55 286.291 796.743 286.601 796.943 286.91C803.879 296.494 810.344 306.41 816.315 316.623L781.41 395.372C775.418 408.973 781.601 424.951 795.107 431.038L862.251 460.806C864.334 481.794 864.589 502.924 863.012 523.956H862.561C857.378 594.416 832.157 659.303 792.557 712.935H793.204C782.916 726.711 771.666 739.741 759.536 751.927L697.051 738.518C682.499 735.38 668.138 744.699 664.999 759.25L650.163 828.49C639.417 833.339 628.442 837.664 617.276 841.448C617.195 841.481 617.111 841.512 617.029 841.545C616.725 841.658 616.42 841.771 616.115 841.883C615.898 841.962 615.687 842.049 615.466 842.123C579.024 854.365 540.006 860.998 499.439 860.998C462.691 860.998 427.215 855.553 393.771 845.428C391.389 844.707 389.183 843.727 387.134 842.523C373.353 838.177 359.844 833.014 346.677 827.063L331.841 757.825C328.702 743.273 314.436 733.952 299.884 737.091L238.731 750.216C232.064 743.199 225.68 735.918 219.593 728.392C217.807 727.184 216.199 725.735 214.808 723.994C165.052 661.724 135.306 582.767 135.306 496.863C135.306 494.22 135.614 491.752 136.19 489.436C136.398 478.822 137.069 468.223 138.203 457.668L201.924 429.325C215.524 423.238 221.707 407.355 215.62 393.755L202.494 364.177H202.734C190.713 342.754 178.032 323.721 178.032 323.721C187.432 306.692 197.715 292.034 209.416 276.648C255.469 216.089 320.058 170.391 394.725 148.01C396.683 147.423 398.628 147.155 400.564 147.15C411.103 144.002 421.779 141.334 432.559 139.154V139.154ZM146.757 358.089C146.759 358.089 146.761 358.089 146.763 358.089C154.458 358.312 161.763 361.527 167.126 367.05C172.489 372.574 175.488 379.97 175.484 387.669C175.435 395.481 172.297 402.956 166.755 408.463C161.214 413.97 153.719 417.061 145.907 417.061C138.094 417.061 130.599 413.97 125.058 408.463C119.516 402.956 116.378 395.481 116.329 387.669C116.327 383.712 117.119 379.795 118.659 376.149C120.198 372.504 122.453 369.205 125.29 366.447C128.127 363.688 131.489 361.528 135.177 360.092C138.864 358.657 142.802 357.976 146.757 358.089V358.089ZM851.975 359.422C851.978 359.422 851.981 359.422 851.984 359.422C859.679 359.644 866.985 362.858 872.348 368.381C877.711 373.904 880.71 381.301 880.707 388.999C880.707 396.844 877.591 404.367 872.044 409.914C866.497 415.461 858.973 418.578 851.128 418.578C843.284 418.578 835.76 415.461 830.213 409.914C824.666 404.367 821.55 396.844 821.55 388.999C821.548 385.042 822.341 381.125 823.88 377.48C825.419 373.835 827.675 370.536 830.512 367.778C833.349 365.02 836.711 362.859 840.398 361.424C844.086 359.989 848.023 359.308 851.979 359.422H851.975ZM280.382 774.562C280.384 774.563 280.386 774.564 280.387 774.564C288.083 774.787 295.388 778.001 300.752 783.524C306.115 789.047 309.114 796.443 309.11 804.142C309.11 811.987 305.994 819.51 300.447 825.057C294.9 830.604 287.377 833.72 279.532 833.72C271.687 833.72 264.164 830.604 258.617 825.057C253.07 819.51 249.953 811.987 249.953 804.142C249.952 800.185 250.744 796.268 252.283 792.622C253.822 788.977 256.077 785.678 258.915 782.92C261.752 780.162 265.114 778.001 268.801 776.565C272.489 775.13 276.427 774.449 280.382 774.562L280.382 774.562ZM718.35 775.895C718.352 775.895 718.354 775.895 718.356 775.895C726.051 776.118 733.356 779.332 738.719 784.855C744.082 790.379 747.08 797.775 747.077 805.474C747.077 813.319 743.961 820.842 738.414 826.389C732.867 831.936 725.343 835.053 717.498 835.053C709.654 835.053 702.13 831.936 696.583 826.389C691.036 820.842 687.92 813.319 687.92 805.474C687.918 801.517 688.71 797.6 690.25 793.954C691.789 790.309 694.044 787.009 696.882 784.251C699.719 781.493 703.081 779.332 706.769 777.897C710.457 776.461 714.395 775.781 718.35 775.895H718.35Z" fill="#F1F1F1" stroke="#F1F1F1" stroke-width="9.51069"/>
<path fill-rule="evenodd" clip-rule="evenodd" d="M924.547 500.085C924.547 612.659 879.827 720.623 800.225 800.225C720.623 879.827 612.659 924.547 500.085 924.547C444.343 924.547 389.148 913.568 337.65 892.236C286.152 870.905 239.359 839.64 199.945 800.225C160.53 760.81 129.264 714.017 107.933 662.519C86.6015 611.021 75.6224 555.826 75.6224 500.085C75.6224 387.51 120.342 279.547 199.945 199.945C279.547 120.342 387.51 75.6224 500.085 75.6224C612.659 75.6224 720.623 120.342 800.225 199.945C879.827 279.547 924.547 387.51 924.547 500.085V500.085ZM916.558 459.093L982.752 500.085L916.558 541.076L973.432 594.24L900.58 621.536L946.041 684.782L869.099 697.336L901.436 768.286L823.543 765.528L841.423 841.423L765.528 823.543L768.286 901.436L697.336 869.099L684.782 946.041L621.536 900.58L594.24 973.432L541.076 916.558L500.085 982.752L459.093 916.558L405.929 973.432L378.633 900.58L315.387 946.041L302.833 869.099L231.883 901.436L234.641 823.543L158.746 841.423L176.626 765.528L98.7334 768.286L131.07 697.336L54.1283 684.782L99.5894 621.536L26.7375 594.24L83.6114 541.076L17.417 500.085L83.6114 459.093L26.7375 405.929L99.5894 378.633L54.1283 315.387L131.07 302.833L98.7334 231.883L176.626 234.641L158.746 158.746L234.641 176.626L231.883 98.7334L302.833 131.07L315.387 54.1283L378.633 99.5894L405.929 26.7375L459.093 83.6114L500.085 17.417L541.076 83.6114L594.24 26.7375L621.536 99.5894L684.782 54.1283L697.336 131.07L768.286 98.7334L765.528 176.626L841.423 158.746L823.543 234.641L901.436 231.883L869.099 302.833L946.041 315.387L900.58 378.633L973.432 405.929L916.558 459.093Z" fill="#F1F1F1" stroke="#F1F1F1" stroke-width="28.5321" stroke-linecap="round" stroke-linejoin="round"/>
<path d="M434.395 664.306C422.787 664.306 424.76 659.923 420.756 648.871L386.622 536.529L649.376 380.65" fill="#BF2543"/>
<path d="M434.396 664.307C443.353 664.307 447.311 660.21 452.311 655.349L500.085 608.895L440.493 572.96" fill="#A92543"/>
<path d="M440.487 572.969L584.883 679.65C601.36 688.742 613.252 684.035 617.357 664.352L676.133 387.376C682.151 363.25 666.936 352.307 651.173 359.464L306.039 492.546C282.48 501.995 282.618 515.139 301.745 520.995L390.314 548.639L595.361 419.277C605.041 413.407 613.925 416.563 606.633 423.034" fill="url(#paint0_radial_1368_49)"/>
<path d="M659.848 357.312C657.067 357.414 654.128 358.122 651.173 359.464L306.039 492.545C282.481 501.994 282.619 515.137 301.746 520.994L390.299 548.635L420.757 648.868C424.761 659.921 422.789 664.306 434.397 664.306C443.355 664.306 447.311 660.207 452.311 655.346L495.346 613.502L584.882 679.65C601.359 688.742 613.254 684.034 617.359 664.352L676.133 387.376C681.022 367.773 671.898 356.872 659.848 357.312V357.312Z" fill="url(#paint1_linear_1368_49)"/>
<path d="M1255.55 577.571V460.384H1275.43V577.571H1255.55ZM1206.9 528.92V509.034H1324.08V528.92H1206.9Z" fill="white"/>
<rect x="1531" width="1000" height="1000" fill="black"/>
<path d="M1790 615V427H1820.17V504.568H1881.41V427H1911.5V615H1881.41V537.34H1820.17V615H1790Z" fill="white"/>
<path d="M1936.38 615V427H1966.54V582.229H2027.71V615H1936.38Z" fill="white"/>
<path d="M2024.44 459.771V427H2141.62V459.771H2097.94V615H2068.12V459.771H2024.44Z" fill="white"/>
<path d="M2160.92 615V427H2218.05C2228.55 427 2237.3 429.05 2244.32 433.15C2251.33 437.251 2256.6 442.942 2260.13 450.225C2263.66 457.446 2265.43 465.769 2265.43 475.193C2265.43 482.537 2264.31 488.993 2262.08 494.563C2259.85 500.07 2256.79 504.599 2252.89 508.148C2249.03 511.637 2244.62 514.115 2239.65 515.584V517.42C2245.08 517.726 2250.17 519.745 2254.91 523.479C2259.69 527.212 2263.57 532.444 2266.54 539.176C2269.51 545.846 2271 553.802 2271 563.043C2271 573.018 2269.12 581.923 2265.36 589.756C2261.64 597.528 2256.14 603.678 2248.85 608.207C2241.55 612.736 2232.57 615 2221.88 615H2160.92ZM2191.09 582.504H2215.68C2224.09 582.504 2230.22 580.393 2234.08 576.17C2237.93 571.886 2239.86 566.195 2239.86 559.096C2239.86 553.894 2238.91 549.304 2237 545.326C2235.1 541.348 2232.38 538.227 2228.85 535.963C2225.37 533.699 2221.21 532.566 2216.38 532.566H2191.09V582.504ZM2191.09 505.67H2213.45C2217.59 505.67 2221.26 504.721 2224.46 502.824C2227.71 500.866 2230.27 498.112 2232.12 494.563C2234.03 491.013 2234.98 486.76 2234.98 481.803C2234.98 475.01 2233.15 469.533 2229.48 465.371C2225.85 461.21 2220.7 459.129 2214.01 459.129H2191.09V505.67Z" fill="white"/>
<defs>
<radialGradient id="paint0_radial_1368_49" cx="0" cy="0" r="1" gradientUnits="userSpaceOnUse" gradientTransform="translate(813.604 346.761) rotate(-0.121261) scale(862.891 795.175)">
<stop stop-color="#FF980E"/>
<stop offset="0.295012" stop-color="#FF7139"/>
<stop offset="0.484646" stop-color="#FF5B51"/>
<stop offset="0.626002" stop-color="#FF4F5E"/>
<stop offset="0.73652" stop-color="#FF4055"/>
<stop offset="0.842829" stop-color="#FF3750"/>
</radialGradient>
<linearGradient id="paint1_linear_1368_49" x1="864.76" y1="116.451" x2="225.714" y2="797.511" gradientUnits="userSpaceOnUse">
<stop stop-color="#FFF44F" stop-opacity="0.8"/>
<stop offset="0.75" stop-color="#FFF44F" stop-opacity="0"/>
</linearGradient>
</defs>
</svg>
